<svg xmlns="http://www.w3.org/2000/svg" viewBox="0 0 160 810">
  <path class="arm" d="m128.41,501.44c-2.93-17.54-6.74-34.94-10.29-52.37-2.28-11.2-4.79-22.35-7.21-33.52-2.91-13.42-6.14-26.78-8.65-40.27-2.58-13.87-4.53-27.85-6.62-41.81-2.18-14.48-5.64-28.8-5.52-43.58.04-5.41,0-10.83-.02-18.29h-22.2c0,10-.18,18.02.46,25.97.84,10.45,2.62,20.83,4.13,31.23,3.81,26.28,7.72,52.53,13.86,78.42,4.38,18.47,8.07,37.11,12.01,55.68,6.11,28.78,11.56,57.68,15.47,86.86,1.33,9.87,2.58,19.74,1.65,29.75-1.6,17.23-9.01,32.34-16.93,47.46-2.79-.97-4.15.5-5.34,2.85-3.6,7.16-7.36,14.23-11.11,21.43-1.97-1.02-3.75-2-5.57-2.86-2.39-1.12-4.04-.6-5.3,1.72-1.71,3.16-3.33,6.37-4.99,9.56-3.48,6.69-6.96,13.37-10.4,19.98-4.77-.61-6.24.01-8.02,3.43-15.57,29.93-31.14,59.87-46.69,89.82-2.07,3.99-1.22,6.58,2.74,8.65,14.06,7.33,28.13,14.65,42.2,21.95,4.5,2.34,7.04,1.5,9.41-3.06,4.38-8.43,8.74-16.86,13.12-25.28.45-.87.96-1.72,1.52-2.74,13.7,6.23,27.17,12.37,40.86,18.6,1.36-2.64,2.62-5.06,3.95-7.63-13.02-7.57-25.89-15.05-38.81-22.57.6-1.2.99-2.03,1.41-2.84,7.95-15.3,15.91-30.59,23.84-45.9,2.31-4.45,2.12-5.68-1.31-9.43.47-.93.95-1.91,1.45-2.88,4.5-8.67,9.02-17.34,13.51-26.01,1.68-3.25,1.18-4.71-2.08-6.45-1.53-.82-3.07-1.62-4.75-2.5,3.67-7.06,7.21-13.94,10.82-20.78,1.31-2.49,2.81-4.89-.73-6.65,2.78-5.64,5.42-10.91,7.98-16.23,8.37-17.42,13.44-35.78,11.42-55.09-2.26-21.62-5.71-43.14-9.29-64.6Z"/>
  <path class="base" d="m60.35,240.65c1.85.55,2.63,1.06,2.57,3.26-.21,7.27-.05,13.45-.09,20.72-.01,2.3.81,3.35,3.31,3.35l1.64.02c.04.58.09,1.22.1,1.67.01,1.07.02,2.15.02,3.23h22.19c0-1.62-.02-3.23-.03-4.87.78-.03,1.32-.07,1.85-.06,3.79.06,4.35-.41,4.38-4.22.05-5.8.06-10.5-.03-16.3-.09-5.8-.15-5.8,5.36-7.55,33.03-10.5,54.26-42.79,50.8-77.3-2.98-29.81-24.23-55.02-53.19-63.08-2.8-.78-5.65-1.36-8.58-2.05.04-1.83.07-3.45.11-5.22,2.09-.03,3.91-.09,5.74-.09,6.3.02,5.09.67,6.14-5.08,1.5-8.25,3.93-16.02,8.66-23.06,2.67-3.97,4.89-8.25,7.13-12.49.69-1.31,1.09-2.93,1.11-4.41.12-9.85.11-19.71.12-29.56,0-4.39-.05-8.78-.07-13.41H39.79c-.15.95-.33,1.57-.33,2.19-.01,9.3.39,18.62-.11,27.9-.53,9.94.96,18.93,6.86,27.33,4.45,6.35,8.52,13.16,9.37,21.27.26,2.46,1.12,4.85,1.51,7.31.28,1.82,1.2,2.13,2.85,2.06,2.73-.13,5.47,0,8.48.04-.03,1.96-.05,3.64-.07,4.84-5.8,1.82-11.29,3.13-16.47,5.23C17.91,116.04-.94,153.27,8.76,188.52c7.37,26.79,24.92,44.15,51.59,52.13Z"/>
</svg>
