<svg xmlns="http://www.w3.org/2000/svg" viewBox="0 0 1000 1000">
    <path d="M819.7,68c-83.1-47.9-189.6-19.3-237.5,63.8c-44.5,77.2-22.9,174.5,46.9,226.4L366.8,781.5l-128.3,30.1l-2-8.4  c-1-4.2-5.2-6.8-9.4-5.8L99.4,827.7c-4.2,1-6.8,5.2-5.8,9.4l11.8,49.7c1,4.2,5.2,6.8,9.4,5.8l127.8-30.2c4.2-1,6.8-5.2,5.8-9.4  l-2.5-10.5l134.6-31.6c4.1-1,7.6-3.5,9.8-7.1l265.8-429c81.4,40.1,181.4,10.6,227.4-69.1C931.3,222.5,902.7,116,819.7,68z   M668.6,354.4l38.7-62.4c34.5,12.1,73.9-1.7,92.8-34.5c21.4-37.2,8.7-84.6-28.5-106.1c-37.2-21.4-84.6-8.7-106.1,28.5  C647,212,654,251.7,680.1,275.8L641.6,338c-59-45.1-77-128.3-38.9-194.3c41.4-71.7,133.4-96.4,205.1-55.1  c71.7,41.4,96.4,133.4,55.1,205.1C823.6,361.9,738.5,387.5,668.6,354.4z"></path>
</svg>